/* microscope-on-chromosomes bitmap */
/* Copyright (c) 1996 matthew wall, all rights reserved */

#define gaview_width 48
#define gaview_height 48
static unsigned char gaview_bits[] = {
   0x00, 0x00, 0x00, 0x00, 0x00, 0x00, 0x00, 0xf0, 0x07, 0x00, 0x00, 0x00,
   0x00, 0xfc, 0x1f, 0x00, 0x00, 0x00, 0x00, 0x3f, 0x7e, 0x00, 0x00, 0x00,
   0x80, 0x07, 0xf0, 0x00, 0x00, 0x00, 0xc0, 0x11, 0xc6, 0x01, 0x00, 0x00,
   0x60, 0x18, 0x01, 0x03, 0x40, 0x00, 0x70, 0x10, 0x03, 0x07, 0x48, 0x00,
   0x30, 0x20, 0x22, 0x06, 0x88, 0x00, 0x38, 0x60, 0x23, 0x8e, 0x88, 0x00,
   0x18, 0xc0, 0xa1, 0x4d, 0x51, 0x00, 0x1c, 0x42, 0x21, 0x5d, 0x51, 0x00,
   0x1c, 0x42, 0x41, 0x9d, 0x20, 0x00, 0x6c, 0x61, 0x81, 0x5d, 0x51, 0x00,
   0x4c, 0x41, 0x81, 0x58, 0x92, 0x00, 0x4c, 0x41, 0x83, 0x98, 0x92, 0x00,
   0x5c, 0x41, 0x83, 0x9c, 0x92, 0x00, 0xdc, 0x40, 0x42, 0x9c, 0x52, 0x00,
   0x98, 0x41, 0x42, 0x8c, 0x50, 0x00, 0x38, 0x61, 0x42, 0x0e, 0x00, 0x00,
   0x30, 0x21, 0x06, 0x06, 0x00, 0x00, 0x70, 0x20, 0x06, 0x07, 0x00, 0x00,
   0x60, 0x60, 0x04, 0x03, 0x00, 0x00, 0xc0, 0x41, 0xc0, 0x01, 0x00, 0x00,
   0x80, 0x07, 0xf0, 0x03, 0x00, 0x00, 0x00, 0x3f, 0x7e, 0x07, 0x00, 0x00,
   0x00, 0xfc, 0x1f, 0x3e, 0x00, 0x00, 0x00, 0xf0, 0x07, 0x7c, 0x00, 0x00,
   0x00, 0x00, 0x00, 0xfc, 0x00, 0x00, 0x00, 0x00, 0x00, 0xfc, 0x01, 0x00,
   0x00, 0x00, 0x00, 0xf8, 0x43, 0x00, 0x00, 0x00, 0x00, 0xf0, 0x4f, 0x00,
   0x00, 0x00, 0x12, 0xe0, 0x8f, 0x00, 0x00, 0x00, 0x12, 0xc9, 0x9f, 0x00,
   0x00, 0x00, 0x14, 0xc5, 0x7f, 0x00, 0x00, 0x50, 0x14, 0x45, 0x7f, 0x00,
   0x40, 0x51, 0x08, 0x82, 0xfe, 0x00, 0x80, 0x20, 0x14, 0x45, 0xfd, 0x01,
   0x40, 0x51, 0x24, 0x4a, 0xfa, 0x03, 0x40, 0xa2, 0x24, 0x89, 0xf2, 0x07,
   0x40, 0x92, 0x28, 0x89, 0xf2, 0x0f, 0x00, 0x90, 0x28, 0x85, 0xd2, 0x1f,
   0x00, 0x00, 0x24, 0x85, 0xd0, 0x1f, 0x00, 0x00, 0x00, 0x0a, 0x00, 0x1f,
   0x00, 0x00, 0x00, 0x00, 0x00, 0x0e, 0x00, 0x00, 0x00, 0x00, 0x00, 0x00,
   0x00, 0x00, 0x00, 0x00, 0x00, 0x00, 0x00, 0x00, 0x00, 0x00, 0x00, 0x00};
