#define stop_width 24
#define stop_height 24
static unsigned char stop_bits[] = {
   0x00, 0x00, 0x00, 0x00, 0x00, 0x00, 0x00, 0x00, 0x00, 0x00, 0x00, 0x00,
   0x00, 0x00, 0x00, 0x00, 0x00, 0x00, 0x00, 0x00, 0x00, 0x80, 0xff, 0x01,
   0x80, 0xff, 0x01, 0x80, 0xff, 0x01, 0x80, 0xff, 0x01, 0x80, 0xff, 0x01,
   0x80, 0xff, 0x01, 0x80, 0xff, 0x01, 0x80, 0xff, 0x01, 0x80, 0xff, 0x01,
   0x80, 0xff, 0x01, 0x00, 0x00, 0x00, 0x00, 0x00, 0x00, 0x00, 0x00, 0x00,
   0x00, 0x00, 0x00, 0x00, 0x00, 0x00, 0x00, 0x00, 0x00, 0x00, 0x00, 0x00};
